<svg xmlns="http://www.w3.org/2000/svg" xml:space="preserve" fill-rule="evenodd" stroke-linejoin="round" stroke-miterlimit="2" clip-rule="evenodd" viewBox="0 0 1024 1024"><path d="m512.006 144.543 43.458 265.61 129.542-66.085-68.084 125.746 364.801 42.188-364.801 42.182 68.084 125.751-129.542-66.09-43.458 265.616-43.458-265.617-129.536 66.091 68.079-125.751-364.796-42.182 364.796-42.188-68.079-125.746 129.536 66.086zM-.001 880.755c84.175 0 152.518-64.182 152.518-143.24 0 79.058 68.335 143.24 152.511 143.24-84.176 0-152.511 64.187-152.511 143.245 0-79.058-68.343-143.245-152.518-143.245M718.969 880.755c84.175 0 152.518-64.182 152.518-143.24 0 79.058 68.335 143.24 152.511 143.24-84.176 0-152.511 64.187-152.511 143.245 0-79.058-68.343-143.245-152.518-143.245M-.001 143.238c84.175 0 152.518-64.181 152.518-143.24 0 79.059 68.335 143.24 152.511 143.24-84.176 0-152.511 64.187-152.511 143.246 0-79.059-68.343-143.246-152.518-143.246M718.969 143.238c84.175 0 152.518-64.181 152.518-143.24 0 79.059 68.335 143.24 152.511 143.24-84.176 0-152.511 64.187-152.511 143.246 0-79.059-68.343-143.246-152.518-143.246"/></svg>